<?xml version="1.0" ?><svg viewBox="0 0 64 64" xmlns="http://www.w3.org/2000/svg"><defs><style>.cls-1{fill:#e0747c;}.cls-2{fill:#bf5763;}.cls-3{fill:#a1cdfb;}.cls-4{fill:#e8eff4;}</style></defs><title/><g data-name="Layer 27" id="Layer_27"><rect class="cls-1" height="6" width="34" x="15" y="56"/><rect class="cls-1" height="6" width="34" x="15" y="18"/><rect class="cls-2" height="32" width="26" x="19" y="24"/><rect class="cls-1" height="12" width="4" x="15" y="28"/><rect class="cls-2" height="8" width="4" x="11" y="30"/><rect class="cls-3" height="2" width="62" x="1" y="61"/><rect class="cls-1" height="12" width="4" x="45" y="28"/><rect class="cls-2" height="8" width="4" x="49" y="30"/><path class="cls-2" d="M19,18h0A12,12,0,0,1,31,6h2A12,12,0,0,1,45,18H19Z"/><circle class="cls-1" cx="32" cy="35" r="7"/><circle class="cls-2" cx="32" cy="35" r="3"/><rect class="cls-4" height="9" width="2" x="22" y="47"/><rect class="cls-4" height="9" width="2" x="28" y="47"/><rect class="cls-4" height="9" width="2" x="34" y="47"/><rect class="cls-4" height="9" width="2" x="40" y="47"/><path class="cls-4" d="M33,6H31a12,12,0,0,0-8,3.07V11a2,2,0,0,0,2,2h.06A1.94,1.94,0,0,0,27,11.06V11a2,2,0,0,1,1.94-2h0a2,2,0,0,1,2,2v2a2,2,0,0,0,4,0,2,2,0,0,1,4,0,2,2,0,0,0,2,2h3.61A12,12,0,0,0,33,6Z"/><path class="cls-1" d="M31,6h2a12,12,0,0,1,2,.17V5a3,3,0,0,0-6,0V6.18A12,12,0,0,1,31,6Z"/></g></svg>